<svg xmlns="http://www.w3.org/2000/svg" xmlns:xlink="http://www.w3.org/1999/xlink" viewBox="0 0 601.87 136.53"><defs><style>.cls-1{fill:none;}.cls-2{fill:#fff;}.cls-3{clip-path:url(#clip-path);}.cls-4{fill:#a5ce3a;}.cls-5{fill:#64bc46;}.cls-6{fill:#f78f1e;}.cls-7{fill:#a77f37;}.cls-8{fill:#77773e;}.cls-9{fill:#972f5a;}.cls-10{fill:#71332d;}.cls-11{fill:#982a27;}.cls-12{fill:#712d2c;}.cls-13{fill:#57a571;}</style><clipPath id="clip-path"><path class="cls-1" d="M118.54,86.05a11.12,11.12,0,0,1-5,8.66L74.72,117.13a11.08,11.08,0,0,1-10,0L25.89,94.71a11.06,11.06,0,0,1-5-8.66V41.22a11.08,11.08,0,0,1,5-8.66L64.71,10.14a11.14,11.14,0,0,1,10,0l38.83,22.42a11.13,11.13,0,0,1,5,8.66Z"/></clipPath></defs><title>logo</title><g id="Layer_2" data-name="Layer 2"><g id="Layer_1-2" data-name="Layer 1"><path class="cls-2" d="M153.4,83.76a2.58,2.58,0,0,1-2.53-2.58V45.89a2.59,2.59,0,0,1,2.53-2.58h24.45a2.39,2.39,0,0,1,0,4.77H156V61.56h19.33a2.36,2.36,0,0,1,0,4.71H156V81.19a2.58,2.58,0,0,1-2.58,2.58"/><path class="cls-2" d="M151.2,45.89a2.25,2.25,0,0,1,2.2-2.26h24.45a2,2,0,0,1,2,2,2.06,2.06,0,0,1-2,2.09h-22.2V61.84H175.3a2,2,0,0,1,0,4.07H155.65V81.15a2.23,2.23,0,1,1-4.46,0V45.89Z"/><path class="cls-2" d="M209.35,63.47c6,0,9.84-3.07,9.84-7.81s-3.66-7.59-9.79-7.59H197.54V63.46h11.81Zm12.42,20.29a2.86,2.86,0,0,1-2.35-1.31L208.3,68l-10.77.12V81.18a2.56,2.56,0,1,1-5.11,0V45.89A2.59,2.59,0,0,1,195,43.31h14.79c4.78,0,8.86,1.44,11.47,4a11.3,11.3,0,0,1,3.14,8c0,6.11-3.75,10.35-10.31,11.79l9.5,12.3a2.72,2.72,0,0,1,.8,1.84,2.65,2.65,0,0,1-2.58,2.52"/><path class="cls-2" d="M209.35,63.79c5.93,0,10.16-3,10.16-8.13v-.11c0-4.86-3.73-7.79-10.11-7.79H197.2v16h12.14Zm-16.6-17.9a2.25,2.25,0,0,1,2.2-2.26h14.79c4.86,0,8.75,1.47,11.24,4a10.94,10.94,0,0,1,3,7.79v.12c0,6.49-4.4,10.28-10.56,11.46l9.88,12.61a2.49,2.49,0,0,1,.74,1.64,2.33,2.33,0,0,1-2.26,2.2,2.58,2.58,0,0,1-2.09-1.19L208.54,67.8H197.21V81.18a2.23,2.23,0,1,1-4.46,0h0V45.89Z"/><path class="cls-2" d="M240.29,83.48a2.58,2.58,0,0,1-2.52-2.58v-35a2.59,2.59,0,0,1,2.52-2.58h24.56a2.36,2.36,0,0,1,0,4.71h-22V60.89h19.44a2.4,2.4,0,0,1,2.36,2.35,2.36,2.36,0,0,1-2.36,2.36H242.87V78.79h22.27a2.36,2.36,0,0,1,0,4.71H240.29Z"/><path class="cls-2" d="M238.09,80.9v-35a2.26,2.26,0,0,1,2.2-2.26h24.56a2,2,0,0,1,0,4.07H242.54v13.5h19.77a2.07,2.07,0,0,1,2,2,2,2,0,0,1-2,2H242.54V79h22.6a2,2,0,0,1,0,4.07H240.29a2.24,2.24,0,0,1-2.2-2.26"/><path class="cls-2" d="M294,84a23.47,23.47,0,0,1-15.16-5.38,2.3,2.3,0,0,1-1-2,2.45,2.45,0,0,1,2.42-2.51h.05a2.37,2.37,0,0,1,1.58.61,17.57,17.57,0,0,0,12.25,4.59c5,0,8.49-2.63,8.49-6.4,0-3.41-1.6-5.53-10-7.3-9.73-2.11-13.53-5.4-13.53-11.72,0-6.55,5.6-11.22,13.31-11.22a20.73,20.73,0,0,1,12.78,4,2.7,2.7,0,0,1,1.09,2.07,2.47,2.47,0,0,1-2.47,2.47h0a2.29,2.29,0,0,1-1.48-.46,16.23,16.23,0,0,0-10-3.38c-4.77,0-8.09,2.49-8.09,6.06s1.62,5.58,10.47,7.48c9.21,2,13.13,5.44,13.13,11.49,0,6.89-5.68,11.62-13.82,11.62"/><path class="cls-2" d="M279,78.42a2,2,0,0,1-.85-1.69,2.14,2.14,0,0,1,2.12-2.19h0a2.07,2.07,0,0,1,1.36.51,17.91,17.91,0,0,0,12.48,4.69c5.31,0,8.81-2.83,8.81-6.72V72.9c0-3.67-2-5.76-10.28-7.51-9.09-2-13.27-4.91-13.27-11.41v-.11c0-6.21,5.48-10.79,13-10.79A20.19,20.19,0,0,1,305,47a2.33,2.33,0,0,1,1,1.81,2.15,2.15,0,0,1-2.15,2.15,2,2,0,0,1-1.3-.4,16.64,16.64,0,0,0-10.22-3.44c-5.14,0-8.41,2.82-8.41,6.38v.14c0,3.73,2,5.82,10.73,7.68s12.87,5.14,12.87,11.18v.11c0,6.78-5.65,11.18-13.5,11.18a23,23,0,0,1-15-5.31"/><path class="cls-2" d="M350.62,83.76A2.57,2.57,0,0,1,348,81.18V65.7H325.87V81.19a2.55,2.55,0,0,1-5.1,0V45.61a2.55,2.55,0,0,1,5.1,0h0V60.88H348V45.61a2.56,2.56,0,0,1,5.11,0V81.18a2.59,2.59,0,0,1-2.53,2.58"/><path class="cls-2" d="M321.09,45.61a2.22,2.22,0,0,1,2.07-2.37,2.24,2.24,0,0,1,2.38,2.08V61.2h22.81V45.61a2.22,2.22,0,0,1,2.22-2.23,2.24,2.24,0,0,1,2.24,2.23h0V81.18a2.23,2.23,0,1,1-4.46,0h0V65.37H325.54V81.18a2.23,2.23,0,1,1-4.46,0h0V45.61Z"/><path class="cls-2" d="M385.12,63.47c6,0,9.84-3.07,9.84-7.81s-3.66-7.59-9.79-7.59H373.3V63.46h11.82Zm12.42,20.29a2.86,2.86,0,0,1-2.35-1.31L384.07,68l-10.77.12V81.18a2.56,2.56,0,1,1-5.11,0V45.89a2.59,2.59,0,0,1,2.52-2.58h14.83c4.78,0,8.86,1.44,11.47,4a11.3,11.3,0,0,1,3.14,8c0,6.11-3.75,10.35-10.31,11.79l9.51,12.23a2.72,2.72,0,0,1,.8,1.84,2.65,2.65,0,0,1-2.58,2.52"/><path class="cls-2" d="M385.12,63.79c5.93,0,10.16-3,10.16-8.13v-.11c0-4.86-3.72-7.79-10.11-7.79H373v16h12.14Zm-16.58-17.9a2.25,2.25,0,0,1,2.2-2.26h14.8c4.86,0,8.75,1.47,11.23,4a11,11,0,0,1,3.05,7.79v.12c0,6.49-4.4,10.28-10.56,11.46l9.81,12.61a2.49,2.49,0,0,1,.74,1.64,2.33,2.33,0,0,1-2.26,2.2,2.58,2.58,0,0,1-2.09-1.19L384.34,67.81H373V81.19a2.23,2.23,0,1,1-4.46,0h0V45.89Z"/><path class="cls-2" d="M416.06,83.48a2.58,2.58,0,0,1-2.52-2.58v-35a2.59,2.59,0,0,1,2.52-2.58h24.56a2.36,2.36,0,0,1,0,4.71h-22V60.89h19.44a2.4,2.4,0,0,1,2.36,2.35,2.36,2.36,0,0,1-2.36,2.36H418.64V78.79h22.27a2.36,2.36,0,0,1,0,4.71H416.06Z"/><path class="cls-2" d="M413.86,80.9v-35a2.26,2.26,0,0,1,2.2-2.26h24.57a2,2,0,0,1,0,4.07H418.32v13.5h19.77a2.07,2.07,0,0,1,2,2,2,2,0,0,1-2,2H418.32V79h22.59a2,2,0,0,1,0,4.07H416.06a2.24,2.24,0,0,1-2.2-2.26"/><path class="cls-2" d="M481.23,68.32l-8.59-19.11-8.59,19.11Zm8.58,15.44a2.72,2.72,0,0,1-2.5-1.83l-4-8.9H462l-4,9a2.54,2.54,0,0,1-2.44,1.71,2.36,2.36,0,0,1-2.36-2.35,2.76,2.76,0,0,1,.32-1.34l16-35a3.46,3.46,0,0,1,6.41,0l16,35a3.48,3.48,0,0,1,.31,1.26,2.47,2.47,0,0,1-2.47,2.47"/><path class="cls-2" d="M481.73,68.61l-9.09-20.18-9.1,20.18h18.19Zm-28,11.58,16-35.07a2.91,2.91,0,0,1,2.82-2h.22a2.87,2.87,0,0,1,2.77,2l16,35a3.18,3.18,0,0,1,.28,1.13,2.14,2.14,0,0,1-2.13,2.15h0a2.42,2.42,0,0,1-2.2-1.64l-4.12-9.09H461.79l-4.12,9.2a2.22,2.22,0,0,1-2.15,1.53,2,2,0,0,1-2-2,2.44,2.44,0,0,1,.28-1.18"/><path class="cls-2" d="M507.19,83.48a2.58,2.58,0,0,1-2.52-2.58V45.61a2.55,2.55,0,0,1,5.1,0h0v33.1h20.17a2.4,2.4,0,0,1,2.36,2.41,2.36,2.36,0,0,1-2.36,2.35H507.19Z"/><path class="cls-2" d="M505,45.61a2.23,2.23,0,1,1,4.46,0V79H530a2.09,2.09,0,0,1,2,2.09,2,2,0,0,1-2,2H507.19a2.24,2.24,0,0,1-2.2-2.26Z"/><path class="cls-2" d="M580.09,83.76a2.6,2.6,0,0,1-2.58-2.58V52.75L565.44,70.47a2.48,2.48,0,0,1-2.13,1.27,2.55,2.55,0,0,1-2.18-1.27l-12-17.65V81.24a2.49,2.49,0,0,1-2.48,2.52h0a2.45,2.45,0,0,1-2.47-2.46V45.67a2.56,2.56,0,0,1,2.52-2.52h.51a2.8,2.8,0,0,1,2.37,1.32L563.39,65.3l13.85-20.83a2.73,2.73,0,0,1,2.3-1.33h.51a2.58,2.58,0,0,1,2.53,2.52V81.18a2.59,2.59,0,0,1-2.53,2.58"/><path class="cls-2" d="M544.45,45.67a2.25,2.25,0,0,1,2.2-2.2h.51a2.5,2.5,0,0,1,2.09,1.14l14.12,21.23,14.12-21.23a2.4,2.4,0,0,1,2-1.15h.51a2.26,2.26,0,0,1,2.2,2.2V81.18a2.25,2.25,0,0,1-2.2,2.26,2.3,2.3,0,0,1-2.26-2.26V51.71L565.14,70.29a2.16,2.16,0,0,1-1.86,1.13,2.23,2.23,0,0,1-1.92-1.13l-12.6-18.52V81.25a2.18,2.18,0,1,1-4.35,0V45.67Z"/><g class="cls-3"><circle class="cls-1" cx="116.51" cy="59.71" r="13.41"/><path class="cls-4" d="M100.81,23.61c-.88,0-1.75,0-2.61.07A28.58,28.58,0,0,1,76.94,56.61c.1,1.14.16,2.3.16,3.47A38.4,38.4,0,0,1,64.83,88.26,26.11,26.11,0,0,1,76.54,116a49.39,49.39,0,1,0,24.27-92.39Zm15.73,49.5A13.41,13.41,0,1,1,130,59.7a13.41,13.41,0,0,1-13.41,13.41Z"/><path class="cls-4" d="M68.43,35.74a49.25,49.25,0,0,1,29.78-12,28.73,28.73,0,0,0-56.16-2A38.49,38.49,0,0,1,68.43,35.74Z"/><path class="cls-5" d="M76.94,56.61A28.58,28.58,0,0,0,98.2,23.68a49.25,49.25,0,0,0-29.78,12A38.49,38.49,0,0,1,76.94,56.61Z"/><path class="cls-6" d="M50.91,84.24c.62,0,1.22.05,1.83.09A49.3,49.3,0,0,1,55.4,53.61,28.54,28.54,0,0,1,42.05,21.77a25.27,25.27,0,0,0-3.51-.16A38.52,38.52,0,0,0,28.27,97.26,26.18,26.18,0,0,1,50.91,84.24Z"/><path class="cls-7" d="M55.4,53.61a49.28,49.28,0,0,0-2.66,30.76,26.21,26.21,0,0,1,12.1,3.94A38.4,38.4,0,0,0,77.11,60.13c0-1.17-.06-2.33-.16-3.47A28.32,28.32,0,0,1,55.4,53.61Z"/><path class="cls-7" d="M55.4,53.61a49.47,49.47,0,0,1,13-17.83A38.49,38.49,0,0,0,42,21.78,28.54,28.54,0,0,0,55.4,53.61Z"/><path class="cls-8" d="M55.4,53.61a28.28,28.28,0,0,0,21.54,3,38.4,38.4,0,0,0-8.51-20.88A49.5,49.5,0,0,0,55.4,53.61Z"/><path class="cls-9" d="M56.25,94.33a38.47,38.47,0,0,1-27.93,2.9,26.18,26.18,0,1,0,45.31,26.23A25.91,25.91,0,0,0,76.54,116,49.53,49.53,0,0,1,56.25,94.33Z"/><path class="cls-10" d="M64.84,88.27a38.64,38.64,0,0,1-8.59,6A49.56,49.56,0,0,0,76.54,116,26.13,26.13,0,0,0,64.84,88.27Z"/><path class="cls-11" d="M56.25,94.33a48.26,48.26,0,0,1-3.51-10c-.61,0-1.21-.09-1.83-.09a26.18,26.18,0,0,0-22.6,13A38.45,38.45,0,0,0,56.25,94.33Z"/><path class="cls-4" d="M56.25,94.33a38.64,38.64,0,0,0,8.59-6,26.21,26.21,0,0,0-12.1-3.94A48.37,48.37,0,0,0,56.25,94.33Z"/><path class="cls-12" d="M56.25,94.33a38.64,38.64,0,0,0,8.59-6,26.21,26.21,0,0,0-12.1-3.94A48.37,48.37,0,0,0,56.25,94.33Z"/><circle class="cls-13" cx="116.51" cy="59.71" r="13.41"/></g><path class="cls-2" d="M596.63,42a5.29,5.29,0,0,1,2.58.68,4.77,4.77,0,0,1,1.95,1.93,5.3,5.3,0,0,1,.71,2.63,5.22,5.22,0,0,1-.7,2.61,4.91,4.91,0,0,1-1.93,1.93,5.28,5.28,0,0,1-5.22,0,5,5,0,0,1-1.93-1.93,5.22,5.22,0,0,1,0-5.24,4.77,4.77,0,0,1,1.95-1.93A5.29,5.29,0,0,1,596.63,42Zm0,1a4.26,4.26,0,0,0-2.07.54A3.9,3.9,0,0,0,593,45.07a4.24,4.24,0,0,0-.57,2.12,4.29,4.29,0,0,0,.56,2.1,4,4,0,0,0,1.56,1.56,4.18,4.18,0,0,0,4.18,0,4.1,4.1,0,0,0,1.56-1.56,4.29,4.29,0,0,0,.56-2.1,4.24,4.24,0,0,0-.57-2.12,3.84,3.84,0,0,0-1.57-1.55A4.26,4.26,0,0,0,596.64,43Zm-2.37,7V44.43h1.12c1.06,0,1.65,0,1.78,0a2.12,2.12,0,0,1,.87.22,1.39,1.39,0,0,1,.52.53,1.57,1.57,0,0,1,.21.8,1.49,1.49,0,0,1-.39,1,1.82,1.82,0,0,1-1.11.53,1.18,1.18,0,0,1,.39.21,2.45,2.45,0,0,1,.38.42c0,.06.18.28.41.68l.66,1.12h-1.4l-.46-.9a4,4,0,0,0-.78-1.15,1.31,1.31,0,0,0-.78-.23h-.3V50Zm1.12-3.16h.46a5.83,5.83,0,0,0,1.22-.07.72.72,0,0,0,.37-.27.74.74,0,0,0,0-.84.76.76,0,0,0-.38-.26,5.78,5.78,0,0,0-1.21-.07h-.46Z"/></g></g></svg>