<svg id="Layer_1" data-name="Layer 1" xmlns="http://www.w3.org/2000/svg" viewBox="0 0 122.5 137.19"><defs><style>.cls-1{fill:#972f5a;}</style></defs><title>carousel-marker</title><path class="cls-1" d="M370.25,320.77a31.34,31.34,0,0,0-26,13.82A46.66,46.66,0,0,0,375,331.21a62.84,62.84,0,0,1-3.65-10.38c-.37,0-.72-.05-1.09-.05" transform="translate(-332.59 -224.82)"/><path class="cls-1" d="M385.17,324.55a31.11,31.11,0,0,0-10.62-3.45,59.89,59.89,0,0,0,3.12,8.7,46.94,46.94,0,0,0,7.5-5.25" transform="translate(-332.59 -224.82)"/><path class="cls-1" d="M338.86,332.4l2.37,1.37a34.35,34.35,0,0,1,29-16l.39,0A63.37,63.37,0,0,1,374,281.41,37,37,0,0,1,357,244l-18.12,10.46a13.92,13.92,0,0,0-6.27,10.87v56.24a13.92,13.92,0,0,0,6.27,10.87" transform="translate(-332.59 -224.82)"/><path class="cls-1" d="M376.3,333.93a49.23,49.23,0,0,1-26.86,4.58l38.13,22a13.92,13.92,0,0,0,12.55,0l.35-.2c0-.17.11-.33.15-.5a63.89,63.89,0,0,1-24.31-25.89" transform="translate(-332.59 -224.82)"/><path class="cls-1" d="M392.39,256.33A63.17,63.17,0,0,1,427.28,242l-27.17-15.68a13.92,13.92,0,0,0-12.55,0L363.81,240a49.79,49.79,0,0,1,28.58,16.3" transform="translate(-332.59 -224.82)"/><path class="cls-1" d="M401.24,356.68a30.91,30.91,0,0,0-13.37-30.47,50.14,50.14,0,0,1-8.9,6.32,60.85,60.85,0,0,0,22.26,24.15" transform="translate(-332.59 -224.82)"/><path class="cls-1" d="M360.28,242.49a34.48,34.48,0,0,0,15,36.12,63.8,63.8,0,0,1,14.88-20.31,46.75,46.75,0,0,0-29.84-15.82" transform="translate(-332.59 -224.82)"/><path class="cls-1" d="M437.23,288.49a15.23,15.23,0,0,0,17.86,15.08V273.41a15.23,15.23,0,0,0-17.86,15.08" transform="translate(-332.59 -224.82)"/><path class="cls-1" d="M448.82,332.4a13.92,13.92,0,0,0,6.27-10.87V306.62a17.91,17.91,0,0,1-2.56.2,18.33,18.33,0,1,1,2.56-36.45V265.3a13.92,13.92,0,0,0-6.27-10.87l-16.76-9.68-.73,0a37.23,37.23,0,0,1-26.82,41c.07,1.06.12,2.13.12,3.21a49.67,49.67,0,0,1-14.53,35.13A34,34,0,0,1,404,358.25Z" transform="translate(-332.59 -224.82)"/><path class="cls-1" d="M428.67,249.67a34.37,34.37,0,0,0-.37-4.74,60.16,60.16,0,0,0-34,13.74,49.57,49.57,0,0,1,9.91,24.06,34.63,34.63,0,0,0,24.45-33.06" transform="translate(-332.59 -224.82)"/><path class="cls-1" d="M394.09,284.25a34.67,34.67,0,0,0,7.18-.76A46.57,46.57,0,0,0,392,260.65a60.67,60.67,0,0,0-14.19,19.52,34.36,34.36,0,0,0,16.25,4.07" transform="translate(-332.59 -224.82)"/><path class="cls-1" d="M401.54,286.52a37.41,37.41,0,0,1-24.88-3.57,60.21,60.21,0,0,0-2.89,35,34.13,34.13,0,0,1,13.72,4.5A46.67,46.67,0,0,0,401.6,289q0-1.24-.06-2.46" transform="translate(-332.59 -224.82)"/></svg>